<?xml version="1.0" encoding="utf-8"?>
<!-- Generator: Adobe Illustrator 16.0.0, SVG Export Plug-In . SVG Version: 6.00 Build 0)  -->
<!DOCTYPE svg PUBLIC "-//W3C//DTD SVG 1.1//EN" "http://www.w3.org/Graphics/SVG/1.1/DTD/svg11.dtd">
<svg version="1.1" id="Layer_1" xmlns="http://www.w3.org/2000/svg" xmlns:xlink="http://www.w3.org/1999/xlink" x="0px" y="0px"
	 width="610.638px" height="612px" viewBox="0 0 610.638 612" enable-background="new 0 0 610.638 612" xml:space="preserve">
<g>
	<g>
		<path fill="#8DC63F" d="M305.316,0.535C136.695,0.535,0,137.23,0,305.854c0,168.622,136.695,305.314,305.316,305.314
			c168.624,0,305.321-136.692,305.321-305.314C610.638,137.23,473.94,0.535,305.316,0.535z M482.478,455.558
			c-3.147,3.147-6.871,4.718-11.174,4.718H356.54c0.161,2.817,0.66,10.062,1.489,21.735c0.825,11.673,1.24,20.657,1.24,26.952
			c0,4.138-1.489,7.655-4.468,10.562c-2.983,2.891-6.545,4.348-10.684,4.348h-79.491c-4.14,0-7.7-1.457-10.681-4.348
			c-2.981-2.906-4.472-6.424-4.472-10.562c0-6.295,0.413-15.279,1.242-26.952c0.827-11.673,1.324-18.918,1.491-21.735H137.443
			c-4.309,0-8.034-1.57-11.178-4.718c-3.147-3.147-4.72-6.875-4.72-11.182c0-4.299,1.572-8.026,4.72-11.174l99.859-100.112H169.24
			c-4.309,0-8.034-1.57-11.178-4.718c-3.148-3.147-4.719-6.866-4.719-11.182c0-4.299,1.571-8.024,4.719-11.172l99.859-100.112
			h-48.938c-4.307,0-8.034-1.57-11.178-4.717c-3.147-3.144-4.719-6.867-4.719-11.178c0-4.303,1.572-8.03,4.719-11.178l95.389-95.387
			c3.144-3.147,6.869-4.722,11.178-4.722c4.305,0,8.028,1.574,11.175,4.722l95.392,95.387c3.144,3.147,4.722,6.875,4.722,11.178
			c0,4.311-1.578,8.034-4.722,11.178c-3.147,3.147-6.875,4.717-11.178,4.717h-48.938l99.859,100.112
			c3.144,3.147,4.722,6.873,4.722,11.172c0,4.315-1.578,8.034-4.722,11.182c-3.147,3.147-6.871,4.718-11.178,4.718h-56.883
			l99.854,100.112c3.147,3.147,4.722,6.875,4.722,11.174C487.199,448.683,485.625,452.41,482.478,455.558z"/>
	</g>
</g>
</svg>
